<mxfile host="app.diagrams.net" modified="2023-10-11T08:29:56.375Z" agent="Mozilla/5.0 (Windows NT 10.0; Win64; x64) AppleWebKit/537.36 (KHTML, like Gecko) Chrome/118.0.0.0 Safari/537.36" etag="-h_lh9xM1ZJTd5MUkp1H" version="22.0.0" type="device">
  <diagram name="Page-1" id="stoD9goWO1lzYf-mKlU2">
    <mxGraphModel dx="1434" dy="750" grid="1" gridSize="10" guides="1" tooltips="1" connect="1" arrows="1" fold="1" page="1" pageScale="1" pageWidth="850" pageHeight="1100" math="0" shadow="0">
      <root>
        <mxCell id="0" />
        <mxCell id="1" parent="0" />
        <mxCell id="dmJfg_LldCalJw2ZhZcC-1" value="Activity Diagram" style="swimlane;childLayout=stackLayout;resizeParent=1;resizeParentMax=0;startSize=20;html=1;" parent="1" vertex="1">
          <mxGeometry x="120" y="800" width="600" height="1610" as="geometry">
            <mxRectangle x="195.00000000000045" y="810" width="70" height="30" as="alternateBounds" />
          </mxGeometry>
        </mxCell>
        <mxCell id="dmJfg_LldCalJw2ZhZcC-2" value="User" style="swimlane;startSize=20;html=1;" parent="dmJfg_LldCalJw2ZhZcC-1" vertex="1">
          <mxGeometry y="20" width="200" height="1590" as="geometry" />
        </mxCell>
        <mxCell id="dmJfg_LldCalJw2ZhZcC-9" style="edgeStyle=orthogonalEdgeStyle;rounded=0;orthogonalLoop=1;jettySize=auto;html=1;exitX=0.5;exitY=1;exitDx=0;exitDy=0;" parent="dmJfg_LldCalJw2ZhZcC-2" source="dmJfg_LldCalJw2ZhZcC-5" target="dmJfg_LldCalJw2ZhZcC-7" edge="1">
          <mxGeometry relative="1" as="geometry" />
        </mxCell>
        <mxCell id="dmJfg_LldCalJw2ZhZcC-5" value="" style="ellipse;html=1;shape=startState;fillColor=#000000;strokeColor=#FF0000;" parent="dmJfg_LldCalJw2ZhZcC-2" vertex="1">
          <mxGeometry x="85" y="30" width="30" height="30" as="geometry" />
        </mxCell>
        <mxCell id="dmJfg_LldCalJw2ZhZcC-7" value="Membuka Aplikasi" style="rounded=1;whiteSpace=wrap;html=1;arcSize=40;fontColor=#000000;fillColor=#ffffc0;strokeColor=#ff0000;" parent="dmJfg_LldCalJw2ZhZcC-2" vertex="1">
          <mxGeometry x="40" y="100" width="120" height="40" as="geometry" />
        </mxCell>
        <mxCell id="dmJfg_LldCalJw2ZhZcC-17" value="Login" style="rounded=1;whiteSpace=wrap;html=1;arcSize=40;fontColor=#000000;fillColor=#ffffc0;strokeColor=#ff0000;" parent="dmJfg_LldCalJw2ZhZcC-2" vertex="1">
          <mxGeometry x="35" y="180" width="130" height="40" as="geometry" />
        </mxCell>
        <mxCell id="dmJfg_LldCalJw2ZhZcC-22" value="Registrasi" style="rounded=1;whiteSpace=wrap;html=1;arcSize=40;fontColor=#000000;fillColor=#ffffc0;strokeColor=#ff0000;" parent="dmJfg_LldCalJw2ZhZcC-2" vertex="1">
          <mxGeometry x="35" y="270" width="130" height="40" as="geometry" />
        </mxCell>
        <mxCell id="dmJfg_LldCalJw2ZhZcC-43" style="edgeStyle=orthogonalEdgeStyle;rounded=0;orthogonalLoop=1;jettySize=auto;html=1;exitX=0.5;exitY=1;exitDx=0;exitDy=0;entryX=0.5;entryY=0;entryDx=0;entryDy=0;" parent="dmJfg_LldCalJw2ZhZcC-2" source="dmJfg_LldCalJw2ZhZcC-35" target="dmJfg_LldCalJw2ZhZcC-41" edge="1">
          <mxGeometry relative="1" as="geometry" />
        </mxCell>
        <mxCell id="dmJfg_LldCalJw2ZhZcC-35" value="Melihat Laporan" style="rounded=1;whiteSpace=wrap;html=1;arcSize=40;fontColor=#000000;fillColor=#ffffc0;strokeColor=#ff0000;" parent="dmJfg_LldCalJw2ZhZcC-2" vertex="1">
          <mxGeometry x="36.5" y="590" width="130" height="40" as="geometry" />
        </mxCell>
        <mxCell id="dmJfg_LldCalJw2ZhZcC-41" value="Cek Laporan Berdasarkan Bulan" style="rounded=1;whiteSpace=wrap;html=1;arcSize=40;fontColor=#000000;fillColor=#ffffc0;strokeColor=#ff0000;" parent="dmJfg_LldCalJw2ZhZcC-2" vertex="1">
          <mxGeometry x="36.5" y="670" width="130" height="40" as="geometry" />
        </mxCell>
        <mxCell id="dmJfg_LldCalJw2ZhZcC-48" value="Lihat Detail" style="rounded=1;whiteSpace=wrap;html=1;arcSize=40;fontColor=#000000;fillColor=#ffffc0;strokeColor=#ff0000;" parent="dmJfg_LldCalJw2ZhZcC-2" vertex="1">
          <mxGeometry x="36.5" y="830" width="130" height="40" as="geometry" />
        </mxCell>
        <mxCell id="dmJfg_LldCalJw2ZhZcC-59" value="Melakukan Pencarian" style="rounded=1;whiteSpace=wrap;html=1;arcSize=40;fontColor=#000000;fillColor=#ffffc0;strokeColor=#ff0000;" parent="dmJfg_LldCalJw2ZhZcC-2" vertex="1">
          <mxGeometry x="36.5" y="980" width="130" height="40" as="geometry" />
        </mxCell>
        <mxCell id="dmJfg_LldCalJw2ZhZcC-69" value="Memasukkan Keyword" style="rounded=1;whiteSpace=wrap;html=1;arcSize=40;fontColor=#000000;fillColor=#ffffc0;strokeColor=#ff0000;" parent="dmJfg_LldCalJw2ZhZcC-2" vertex="1">
          <mxGeometry x="29" y="1060" width="145" height="40" as="geometry" />
        </mxCell>
        <mxCell id="dmJfg_LldCalJw2ZhZcC-74" value="Menambahkan Pengeluaran" style="rounded=1;whiteSpace=wrap;html=1;arcSize=40;fontColor=#000000;fillColor=#ffffc0;strokeColor=#ff0000;" parent="dmJfg_LldCalJw2ZhZcC-2" vertex="1">
          <mxGeometry x="29" y="1335" width="145" height="40" as="geometry" />
        </mxCell>
        <mxCell id="dmJfg_LldCalJw2ZhZcC-77" value="Mengisi Detail Pengeluaran" style="rounded=1;whiteSpace=wrap;html=1;arcSize=40;fontColor=#000000;fillColor=#ffffc0;strokeColor=#ff0000;" parent="dmJfg_LldCalJw2ZhZcC-2" vertex="1">
          <mxGeometry x="29" y="1415" width="145" height="40" as="geometry" />
        </mxCell>
        <mxCell id="nOpQTuYZqoU_LGnzcLyJ-2" value="Mengisi Data &lt;br&gt;Registrasi" style="rounded=1;whiteSpace=wrap;html=1;arcSize=40;fontColor=#000000;fillColor=#ffffc0;strokeColor=#ff0000;" vertex="1" parent="dmJfg_LldCalJw2ZhZcC-2">
          <mxGeometry x="35" y="360" width="130" height="40" as="geometry" />
        </mxCell>
        <mxCell id="nOpQTuYZqoU_LGnzcLyJ-4" value="Memasukkan Filter" style="rounded=1;whiteSpace=wrap;html=1;arcSize=40;fontColor=#000000;fillColor=#ffffc0;strokeColor=#ff0000;" vertex="1" parent="dmJfg_LldCalJw2ZhZcC-2">
          <mxGeometry x="27.5" y="1130" width="145" height="40" as="geometry" />
        </mxCell>
        <mxCell id="nOpQTuYZqoU_LGnzcLyJ-9" value="Melihat Detail Pengeluaran" style="rounded=1;whiteSpace=wrap;html=1;arcSize=40;fontColor=#000000;fillColor=#ffffc0;strokeColor=#ff0000;" vertex="1" parent="dmJfg_LldCalJw2ZhZcC-2">
          <mxGeometry x="29" y="1200" width="145" height="40" as="geometry" />
        </mxCell>
        <mxCell id="dmJfg_LldCalJw2ZhZcC-86" style="edgeStyle=orthogonalEdgeStyle;rounded=0;orthogonalLoop=1;jettySize=auto;html=1;exitX=0;exitY=0.5;exitDx=0;exitDy=0;entryX=0;entryY=0.5;entryDx=0;entryDy=0;" parent="dmJfg_LldCalJw2ZhZcC-2" target="dmJfg_LldCalJw2ZhZcC-74" edge="1">
          <mxGeometry relative="1" as="geometry">
            <Array as="points">
              <mxPoint x="10" y="520" />
              <mxPoint x="10" y="1355" />
            </Array>
            <mxPoint x="225" y="520" as="sourcePoint" />
            <mxPoint x="19" y="1355" as="targetPoint" />
          </mxGeometry>
        </mxCell>
        <mxCell id="dmJfg_LldCalJw2ZhZcC-3" value="Aplikasi" style="swimlane;startSize=20;html=1;" parent="dmJfg_LldCalJw2ZhZcC-1" vertex="1">
          <mxGeometry x="200" y="20" width="200" height="1590" as="geometry" />
        </mxCell>
        <mxCell id="dmJfg_LldCalJw2ZhZcC-10" value="Halaman Login" style="rounded=1;whiteSpace=wrap;html=1;arcSize=40;fontColor=#000000;fillColor=#ffffc0;strokeColor=#ff0000;" parent="dmJfg_LldCalJw2ZhZcC-3" vertex="1">
          <mxGeometry x="40" y="100" width="120" height="40" as="geometry" />
        </mxCell>
        <mxCell id="dmJfg_LldCalJw2ZhZcC-12" value="Dashboard" style="rounded=1;whiteSpace=wrap;html=1;arcSize=40;fontColor=#000000;fillColor=#ffffc0;strokeColor=#ff0000;" parent="dmJfg_LldCalJw2ZhZcC-3" vertex="1">
          <mxGeometry x="35" y="500" width="130" height="40" as="geometry" />
        </mxCell>
        <mxCell id="dmJfg_LldCalJw2ZhZcC-36" value="Halaman Registrasi" style="rounded=1;whiteSpace=wrap;html=1;arcSize=40;fontColor=#000000;fillColor=#ffffc0;strokeColor=#ff0000;" parent="dmJfg_LldCalJw2ZhZcC-3" vertex="1">
          <mxGeometry x="35" y="270" width="130" height="40" as="geometry" />
        </mxCell>
        <mxCell id="dmJfg_LldCalJw2ZhZcC-47" style="edgeStyle=orthogonalEdgeStyle;rounded=0;orthogonalLoop=1;jettySize=auto;html=1;exitX=0.5;exitY=1;exitDx=0;exitDy=0;" parent="dmJfg_LldCalJw2ZhZcC-3" source="dmJfg_LldCalJw2ZhZcC-42" target="dmJfg_LldCalJw2ZhZcC-46" edge="1">
          <mxGeometry relative="1" as="geometry" />
        </mxCell>
        <mxCell id="dmJfg_LldCalJw2ZhZcC-42" value="Halaman Laporan Berdasarkan Bulan" style="rounded=1;whiteSpace=wrap;html=1;arcSize=40;fontColor=#000000;fillColor=#ffffc0;strokeColor=#ff0000;" parent="dmJfg_LldCalJw2ZhZcC-3" vertex="1">
          <mxGeometry x="36.5" y="670" width="130" height="40" as="geometry" />
        </mxCell>
        <mxCell id="dmJfg_LldCalJw2ZhZcC-46" value="Tab Laporan Berdasarkan Hari" style="rounded=1;whiteSpace=wrap;html=1;arcSize=40;fontColor=#000000;fillColor=#ffffc0;strokeColor=#ff0000;" parent="dmJfg_LldCalJw2ZhZcC-3" vertex="1">
          <mxGeometry x="36.5" y="750" width="130" height="40" as="geometry" />
        </mxCell>
        <mxCell id="dmJfg_LldCalJw2ZhZcC-57" style="edgeStyle=orthogonalEdgeStyle;rounded=0;orthogonalLoop=1;jettySize=auto;html=1;exitX=0.5;exitY=1;exitDx=0;exitDy=0;entryX=0.5;entryY=0;entryDx=0;entryDy=0;" parent="dmJfg_LldCalJw2ZhZcC-3" source="dmJfg_LldCalJw2ZhZcC-51" target="dmJfg_LldCalJw2ZhZcC-56" edge="1">
          <mxGeometry relative="1" as="geometry" />
        </mxCell>
        <mxCell id="dmJfg_LldCalJw2ZhZcC-51" value="Halaman Detail Pengeluaran" style="rounded=1;whiteSpace=wrap;html=1;arcSize=40;fontColor=#000000;fillColor=#ffffc0;strokeColor=#ff0000;" parent="dmJfg_LldCalJw2ZhZcC-3" vertex="1">
          <mxGeometry x="36.5" y="830" width="130" height="40" as="geometry" />
        </mxCell>
        <mxCell id="dmJfg_LldCalJw2ZhZcC-56" value="" style="ellipse;html=1;shape=endState;fillColor=#000000;strokeColor=#ff0000;" parent="dmJfg_LldCalJw2ZhZcC-3" vertex="1">
          <mxGeometry x="86.5" y="905" width="30" height="30" as="geometry" />
        </mxCell>
        <mxCell id="dmJfg_LldCalJw2ZhZcC-60" value="Tab Pencarian" style="rounded=1;whiteSpace=wrap;html=1;arcSize=40;fontColor=#000000;fillColor=#ffffc0;strokeColor=#ff0000;" parent="dmJfg_LldCalJw2ZhZcC-3" vertex="1">
          <mxGeometry x="36.5" y="980" width="130" height="40" as="geometry" />
        </mxCell>
        <mxCell id="dmJfg_LldCalJw2ZhZcC-62" value="Halaman Hasil Pencarian" style="rounded=1;whiteSpace=wrap;html=1;arcSize=40;fontColor=#000000;fillColor=#ffffc0;strokeColor=#ff0000;" parent="dmJfg_LldCalJw2ZhZcC-3" vertex="1">
          <mxGeometry x="29" y="1100" width="145" height="40" as="geometry" />
        </mxCell>
        <mxCell id="dmJfg_LldCalJw2ZhZcC-73" style="edgeStyle=orthogonalEdgeStyle;rounded=0;orthogonalLoop=1;jettySize=auto;html=1;exitX=0.5;exitY=1;exitDx=0;exitDy=0;entryX=0.5;entryY=0;entryDx=0;entryDy=0;" parent="dmJfg_LldCalJw2ZhZcC-3" source="dmJfg_LldCalJw2ZhZcC-66" target="dmJfg_LldCalJw2ZhZcC-72" edge="1">
          <mxGeometry relative="1" as="geometry" />
        </mxCell>
        <mxCell id="dmJfg_LldCalJw2ZhZcC-66" value="Halaman Detail Pengeluaran" style="rounded=1;whiteSpace=wrap;html=1;arcSize=40;fontColor=#000000;fillColor=#ffffc0;strokeColor=#ff0000;" parent="dmJfg_LldCalJw2ZhZcC-3" vertex="1">
          <mxGeometry x="36.5" y="1200" width="130" height="40" as="geometry" />
        </mxCell>
        <mxCell id="dmJfg_LldCalJw2ZhZcC-72" value="" style="ellipse;html=1;shape=endState;fillColor=#000000;strokeColor=#ff0000;" parent="dmJfg_LldCalJw2ZhZcC-3" vertex="1">
          <mxGeometry x="86.5" y="1270" width="30" height="30" as="geometry" />
        </mxCell>
        <mxCell id="dmJfg_LldCalJw2ZhZcC-76" value="Halaman Pencatatan" style="rounded=1;whiteSpace=wrap;html=1;arcSize=40;fontColor=#000000;fillColor=#ffffc0;strokeColor=#ff0000;" parent="dmJfg_LldCalJw2ZhZcC-3" vertex="1">
          <mxGeometry x="29" y="1335" width="145" height="40" as="geometry" />
        </mxCell>
        <mxCell id="dmJfg_LldCalJw2ZhZcC-90" style="edgeStyle=orthogonalEdgeStyle;rounded=0;orthogonalLoop=1;jettySize=auto;html=1;exitX=0.5;exitY=1;exitDx=0;exitDy=0;" parent="dmJfg_LldCalJw2ZhZcC-3" source="dmJfg_LldCalJw2ZhZcC-87" target="dmJfg_LldCalJw2ZhZcC-89" edge="1">
          <mxGeometry relative="1" as="geometry" />
        </mxCell>
        <mxCell id="dmJfg_LldCalJw2ZhZcC-87" value="Dashboard" style="rounded=1;whiteSpace=wrap;html=1;arcSize=40;fontColor=#000000;fillColor=#ffffc0;strokeColor=#ff0000;" parent="dmJfg_LldCalJw2ZhZcC-3" vertex="1">
          <mxGeometry x="27.5" y="1465" width="145" height="40" as="geometry" />
        </mxCell>
        <mxCell id="dmJfg_LldCalJw2ZhZcC-89" value="" style="ellipse;html=1;shape=endState;fillColor=#000000;strokeColor=#ff0000;" parent="dmJfg_LldCalJw2ZhZcC-3" vertex="1">
          <mxGeometry x="85" y="1540" width="30" height="30" as="geometry" />
        </mxCell>
        <mxCell id="dmJfg_LldCalJw2ZhZcC-4" value="Database" style="swimlane;startSize=20;html=1;" parent="dmJfg_LldCalJw2ZhZcC-1" vertex="1">
          <mxGeometry x="400" y="20" width="200" height="1590" as="geometry">
            <mxRectangle x="240" y="20" width="40" height="460" as="alternateBounds" />
          </mxGeometry>
        </mxCell>
        <mxCell id="dmJfg_LldCalJw2ZhZcC-21" style="edgeStyle=orthogonalEdgeStyle;rounded=0;orthogonalLoop=1;jettySize=auto;html=1;exitX=0.5;exitY=1;exitDx=0;exitDy=0;entryX=0.5;entryY=0;entryDx=0;entryDy=0;" parent="dmJfg_LldCalJw2ZhZcC-4" source="dmJfg_LldCalJw2ZhZcC-14" target="dmJfg_LldCalJw2ZhZcC-20" edge="1">
          <mxGeometry relative="1" as="geometry" />
        </mxCell>
        <mxCell id="dmJfg_LldCalJw2ZhZcC-14" value="Database Akun" style="rounded=1;whiteSpace=wrap;html=1;arcSize=40;fontColor=#000000;fillColor=#ffffc0;strokeColor=#ff0000;" parent="dmJfg_LldCalJw2ZhZcC-4" vertex="1">
          <mxGeometry x="45" y="180" width="120" height="40" as="geometry" />
        </mxCell>
        <mxCell id="dmJfg_LldCalJw2ZhZcC-20" value="Autentikasi" style="rhombus;whiteSpace=wrap;html=1;" parent="dmJfg_LldCalJw2ZhZcC-4" vertex="1">
          <mxGeometry x="60" y="250" width="90" height="80" as="geometry" />
        </mxCell>
        <mxCell id="dmJfg_LldCalJw2ZhZcC-33" style="edgeStyle=orthogonalEdgeStyle;rounded=0;orthogonalLoop=1;jettySize=auto;html=1;exitX=0.5;exitY=1;exitDx=0;exitDy=0;entryX=0.5;entryY=0;entryDx=0;entryDy=0;" parent="dmJfg_LldCalJw2ZhZcC-4" source="dmJfg_LldCalJw2ZhZcC-31" target="dmJfg_LldCalJw2ZhZcC-32" edge="1">
          <mxGeometry relative="1" as="geometry" />
        </mxCell>
        <mxCell id="dmJfg_LldCalJw2ZhZcC-31" value="Menyimpan Akun" style="rounded=1;whiteSpace=wrap;html=1;arcSize=40;fontColor=#000000;fillColor=#ffffc0;strokeColor=#ff0000;" parent="dmJfg_LldCalJw2ZhZcC-4" vertex="1">
          <mxGeometry x="35" y="360" width="130" height="40" as="geometry" />
        </mxCell>
        <mxCell id="dmJfg_LldCalJw2ZhZcC-32" value="" style="ellipse;html=1;shape=endState;fillColor=#000000;strokeColor=#ff0000;" parent="dmJfg_LldCalJw2ZhZcC-4" vertex="1">
          <mxGeometry x="85" y="440" width="30" height="30" as="geometry" />
        </mxCell>
        <mxCell id="dmJfg_LldCalJw2ZhZcC-38" value="Laporan Pengeluaran" style="rounded=1;whiteSpace=wrap;html=1;arcSize=40;fontColor=#000000;fillColor=#ffffc0;strokeColor=#ff0000;" parent="dmJfg_LldCalJw2ZhZcC-4" vertex="1">
          <mxGeometry x="36.5" y="590" width="130" height="40" as="geometry" />
        </mxCell>
        <mxCell id="dmJfg_LldCalJw2ZhZcC-53" value="Database Detail Laporan" style="rounded=1;whiteSpace=wrap;html=1;arcSize=40;fontColor=#000000;fillColor=#ffffc0;strokeColor=#ff0000;" parent="dmJfg_LldCalJw2ZhZcC-4" vertex="1">
          <mxGeometry x="41.5" y="990" width="130" height="40" as="geometry" />
        </mxCell>
        <mxCell id="dmJfg_LldCalJw2ZhZcC-84" style="edgeStyle=orthogonalEdgeStyle;rounded=0;orthogonalLoop=1;jettySize=auto;html=1;exitX=0.5;exitY=1;exitDx=0;exitDy=0;" parent="dmJfg_LldCalJw2ZhZcC-4" source="dmJfg_LldCalJw2ZhZcC-80" target="dmJfg_LldCalJw2ZhZcC-82" edge="1">
          <mxGeometry relative="1" as="geometry" />
        </mxCell>
        <mxCell id="dmJfg_LldCalJw2ZhZcC-80" value="Menyimpan Detail Pengeluaran" style="rounded=1;whiteSpace=wrap;html=1;arcSize=40;fontColor=#000000;fillColor=#ffffc0;strokeColor=#ff0000;" parent="dmJfg_LldCalJw2ZhZcC-4" vertex="1">
          <mxGeometry x="36.5" y="1415" width="145" height="40" as="geometry" />
        </mxCell>
        <mxCell id="dmJfg_LldCalJw2ZhZcC-82" value="" style="ellipse;html=1;shape=endState;fillColor=#000000;strokeColor=#ff0000;" parent="dmJfg_LldCalJw2ZhZcC-4" vertex="1">
          <mxGeometry x="94" y="1485" width="30" height="30" as="geometry" />
        </mxCell>
        <mxCell id="dmJfg_LldCalJw2ZhZcC-11" style="edgeStyle=orthogonalEdgeStyle;rounded=0;orthogonalLoop=1;jettySize=auto;html=1;exitX=1;exitY=0.5;exitDx=0;exitDy=0;entryX=0;entryY=0.5;entryDx=0;entryDy=0;" parent="dmJfg_LldCalJw2ZhZcC-1" source="dmJfg_LldCalJw2ZhZcC-7" target="dmJfg_LldCalJw2ZhZcC-10" edge="1">
          <mxGeometry relative="1" as="geometry" />
        </mxCell>
        <mxCell id="dmJfg_LldCalJw2ZhZcC-18" style="rounded=0;orthogonalLoop=1;jettySize=auto;html=1;exitX=0.5;exitY=1;exitDx=0;exitDy=0;entryX=0.5;entryY=0;entryDx=0;entryDy=0;edgeStyle=orthogonalEdgeStyle;" parent="dmJfg_LldCalJw2ZhZcC-1" source="dmJfg_LldCalJw2ZhZcC-10" target="dmJfg_LldCalJw2ZhZcC-17" edge="1">
          <mxGeometry relative="1" as="geometry" />
        </mxCell>
        <mxCell id="dmJfg_LldCalJw2ZhZcC-19" style="edgeStyle=orthogonalEdgeStyle;rounded=0;orthogonalLoop=1;jettySize=auto;html=1;exitX=1;exitY=0.5;exitDx=0;exitDy=0;entryX=0;entryY=0.5;entryDx=0;entryDy=0;" parent="dmJfg_LldCalJw2ZhZcC-1" source="dmJfg_LldCalJw2ZhZcC-17" target="dmJfg_LldCalJw2ZhZcC-14" edge="1">
          <mxGeometry relative="1" as="geometry" />
        </mxCell>
        <mxCell id="dmJfg_LldCalJw2ZhZcC-24" style="edgeStyle=orthogonalEdgeStyle;rounded=0;orthogonalLoop=1;jettySize=auto;html=1;entryX=1;entryY=0.5;entryDx=0;entryDy=0;exitX=1;exitY=0.5;exitDx=0;exitDy=0;" parent="dmJfg_LldCalJw2ZhZcC-1" source="dmJfg_LldCalJw2ZhZcC-20" target="dmJfg_LldCalJw2ZhZcC-10" edge="1">
          <mxGeometry relative="1" as="geometry">
            <mxPoint x="420" y="310" as="targetPoint" />
            <mxPoint x="550" y="310" as="sourcePoint" />
            <Array as="points">
              <mxPoint x="580" y="310" />
              <mxPoint x="580" y="140" />
            </Array>
          </mxGeometry>
        </mxCell>
        <mxCell id="dmJfg_LldCalJw2ZhZcC-29" value="N" style="edgeLabel;html=1;align=center;verticalAlign=middle;resizable=0;points=[];" parent="dmJfg_LldCalJw2ZhZcC-24" vertex="1" connectable="0">
          <mxGeometry x="-0.7763" relative="1" as="geometry">
            <mxPoint x="-9" as="offset" />
          </mxGeometry>
        </mxCell>
        <mxCell id="dmJfg_LldCalJw2ZhZcC-25" style="edgeStyle=orthogonalEdgeStyle;rounded=0;orthogonalLoop=1;jettySize=auto;html=1;exitX=0.5;exitY=1;exitDx=0;exitDy=0;entryX=0.5;entryY=0;entryDx=0;entryDy=0;" parent="dmJfg_LldCalJw2ZhZcC-1" source="dmJfg_LldCalJw2ZhZcC-20" target="dmJfg_LldCalJw2ZhZcC-12" edge="1">
          <mxGeometry relative="1" as="geometry">
            <Array as="points">
              <mxPoint x="505" y="370" />
              <mxPoint x="300" y="370" />
            </Array>
          </mxGeometry>
        </mxCell>
        <mxCell id="dmJfg_LldCalJw2ZhZcC-26" value="Y" style="edgeLabel;html=1;align=center;verticalAlign=middle;resizable=0;points=[];" parent="dmJfg_LldCalJw2ZhZcC-25" vertex="1" connectable="0">
          <mxGeometry x="-0.275" y="-2" relative="1" as="geometry">
            <mxPoint x="49" y="2" as="offset" />
          </mxGeometry>
        </mxCell>
        <mxCell id="dmJfg_LldCalJw2ZhZcC-30" style="edgeStyle=orthogonalEdgeStyle;rounded=0;orthogonalLoop=1;jettySize=auto;html=1;entryX=0;entryY=0.5;entryDx=0;entryDy=0;exitX=1;exitY=0.5;exitDx=0;exitDy=0;" parent="dmJfg_LldCalJw2ZhZcC-1" source="nOpQTuYZqoU_LGnzcLyJ-2" target="dmJfg_LldCalJw2ZhZcC-31" edge="1">
          <mxGeometry relative="1" as="geometry">
            <mxPoint x="120" y="440" as="sourcePoint" />
          </mxGeometry>
        </mxCell>
        <mxCell id="dmJfg_LldCalJw2ZhZcC-39" style="edgeStyle=orthogonalEdgeStyle;rounded=0;orthogonalLoop=1;jettySize=auto;html=1;exitX=0.5;exitY=0;exitDx=0;exitDy=0;entryX=1;entryY=0.5;entryDx=0;entryDy=0;" parent="dmJfg_LldCalJw2ZhZcC-1" source="dmJfg_LldCalJw2ZhZcC-38" target="dmJfg_LldCalJw2ZhZcC-12" edge="1">
          <mxGeometry relative="1" as="geometry" />
        </mxCell>
        <mxCell id="dmJfg_LldCalJw2ZhZcC-40" style="edgeStyle=orthogonalEdgeStyle;rounded=0;orthogonalLoop=1;jettySize=auto;html=1;exitX=0;exitY=0.5;exitDx=0;exitDy=0;entryX=0;entryY=0.5;entryDx=0;entryDy=0;" parent="dmJfg_LldCalJw2ZhZcC-1" source="dmJfg_LldCalJw2ZhZcC-12" target="dmJfg_LldCalJw2ZhZcC-35" edge="1">
          <mxGeometry relative="1" as="geometry">
            <Array as="points">
              <mxPoint x="20" y="540" />
              <mxPoint x="20" y="630" />
            </Array>
          </mxGeometry>
        </mxCell>
        <mxCell id="dmJfg_LldCalJw2ZhZcC-44" style="edgeStyle=orthogonalEdgeStyle;rounded=0;orthogonalLoop=1;jettySize=auto;html=1;exitX=1;exitY=0.5;exitDx=0;exitDy=0;entryX=0;entryY=0.5;entryDx=0;entryDy=0;" parent="dmJfg_LldCalJw2ZhZcC-1" source="dmJfg_LldCalJw2ZhZcC-41" target="dmJfg_LldCalJw2ZhZcC-42" edge="1">
          <mxGeometry relative="1" as="geometry" />
        </mxCell>
        <mxCell id="dmJfg_LldCalJw2ZhZcC-45" style="edgeStyle=orthogonalEdgeStyle;rounded=0;orthogonalLoop=1;jettySize=auto;html=1;exitX=0.5;exitY=1;exitDx=0;exitDy=0;entryX=1;entryY=0.5;entryDx=0;entryDy=0;" parent="dmJfg_LldCalJw2ZhZcC-1" source="dmJfg_LldCalJw2ZhZcC-38" target="dmJfg_LldCalJw2ZhZcC-42" edge="1">
          <mxGeometry relative="1" as="geometry" />
        </mxCell>
        <mxCell id="dmJfg_LldCalJw2ZhZcC-49" style="edgeStyle=orthogonalEdgeStyle;rounded=0;orthogonalLoop=1;jettySize=auto;html=1;exitX=0;exitY=0.5;exitDx=0;exitDy=0;entryX=0.5;entryY=0;entryDx=0;entryDy=0;" parent="dmJfg_LldCalJw2ZhZcC-1" source="dmJfg_LldCalJw2ZhZcC-46" target="dmJfg_LldCalJw2ZhZcC-48" edge="1">
          <mxGeometry relative="1" as="geometry" />
        </mxCell>
        <mxCell id="dmJfg_LldCalJw2ZhZcC-52" style="edgeStyle=orthogonalEdgeStyle;rounded=0;orthogonalLoop=1;jettySize=auto;html=1;exitX=1;exitY=0.5;exitDx=0;exitDy=0;" parent="dmJfg_LldCalJw2ZhZcC-1" source="dmJfg_LldCalJw2ZhZcC-48" target="dmJfg_LldCalJw2ZhZcC-51" edge="1">
          <mxGeometry relative="1" as="geometry" />
        </mxCell>
        <mxCell id="dmJfg_LldCalJw2ZhZcC-55" style="edgeStyle=orthogonalEdgeStyle;rounded=0;orthogonalLoop=1;jettySize=auto;html=1;exitX=0.5;exitY=0;exitDx=0;exitDy=0;entryX=1;entryY=0.5;entryDx=0;entryDy=0;" parent="dmJfg_LldCalJw2ZhZcC-1" source="dmJfg_LldCalJw2ZhZcC-53" target="dmJfg_LldCalJw2ZhZcC-51" edge="1">
          <mxGeometry relative="1" as="geometry" />
        </mxCell>
        <mxCell id="dmJfg_LldCalJw2ZhZcC-61" style="edgeStyle=orthogonalEdgeStyle;rounded=0;orthogonalLoop=1;jettySize=auto;html=1;exitX=1;exitY=0.5;exitDx=0;exitDy=0;entryX=0;entryY=0.5;entryDx=0;entryDy=0;" parent="dmJfg_LldCalJw2ZhZcC-1" source="dmJfg_LldCalJw2ZhZcC-59" target="dmJfg_LldCalJw2ZhZcC-60" edge="1">
          <mxGeometry relative="1" as="geometry" />
        </mxCell>
        <mxCell id="dmJfg_LldCalJw2ZhZcC-68" style="edgeStyle=orthogonalEdgeStyle;rounded=0;orthogonalLoop=1;jettySize=auto;html=1;exitX=0.5;exitY=1;exitDx=0;exitDy=0;entryX=1;entryY=0.5;entryDx=0;entryDy=0;" parent="dmJfg_LldCalJw2ZhZcC-1" source="dmJfg_LldCalJw2ZhZcC-53" target="dmJfg_LldCalJw2ZhZcC-66" edge="1">
          <mxGeometry relative="1" as="geometry" />
        </mxCell>
        <mxCell id="dmJfg_LldCalJw2ZhZcC-70" style="edgeStyle=orthogonalEdgeStyle;rounded=0;orthogonalLoop=1;jettySize=auto;html=1;exitX=1;exitY=0.5;exitDx=0;exitDy=0;entryX=0;entryY=0.5;entryDx=0;entryDy=0;" parent="dmJfg_LldCalJw2ZhZcC-1" source="dmJfg_LldCalJw2ZhZcC-69" target="dmJfg_LldCalJw2ZhZcC-62" edge="1">
          <mxGeometry relative="1" as="geometry">
            <Array as="points">
              <mxPoint x="210" y="1100" />
              <mxPoint x="210" y="1140" />
            </Array>
          </mxGeometry>
        </mxCell>
        <mxCell id="dmJfg_LldCalJw2ZhZcC-71" style="edgeStyle=orthogonalEdgeStyle;rounded=0;orthogonalLoop=1;jettySize=auto;html=1;exitX=0.5;exitY=1;exitDx=0;exitDy=0;entryX=0.5;entryY=0;entryDx=0;entryDy=0;" parent="dmJfg_LldCalJw2ZhZcC-1" source="dmJfg_LldCalJw2ZhZcC-60" target="dmJfg_LldCalJw2ZhZcC-69" edge="1">
          <mxGeometry relative="1" as="geometry" />
        </mxCell>
        <mxCell id="dmJfg_LldCalJw2ZhZcC-78" style="edgeStyle=orthogonalEdgeStyle;rounded=0;orthogonalLoop=1;jettySize=auto;html=1;exitX=1;exitY=0.5;exitDx=0;exitDy=0;entryX=0;entryY=0.5;entryDx=0;entryDy=0;" parent="dmJfg_LldCalJw2ZhZcC-1" source="dmJfg_LldCalJw2ZhZcC-74" target="dmJfg_LldCalJw2ZhZcC-76" edge="1">
          <mxGeometry relative="1" as="geometry" />
        </mxCell>
        <mxCell id="dmJfg_LldCalJw2ZhZcC-79" style="edgeStyle=orthogonalEdgeStyle;rounded=0;orthogonalLoop=1;jettySize=auto;html=1;exitX=0.5;exitY=1;exitDx=0;exitDy=0;entryX=0.5;entryY=0;entryDx=0;entryDy=0;" parent="dmJfg_LldCalJw2ZhZcC-1" source="dmJfg_LldCalJw2ZhZcC-76" target="dmJfg_LldCalJw2ZhZcC-77" edge="1">
          <mxGeometry relative="1" as="geometry" />
        </mxCell>
        <mxCell id="dmJfg_LldCalJw2ZhZcC-81" style="edgeStyle=orthogonalEdgeStyle;rounded=0;orthogonalLoop=1;jettySize=auto;html=1;exitX=1;exitY=0.5;exitDx=0;exitDy=0;entryX=0;entryY=0.5;entryDx=0;entryDy=0;" parent="dmJfg_LldCalJw2ZhZcC-1" source="dmJfg_LldCalJw2ZhZcC-77" target="dmJfg_LldCalJw2ZhZcC-80" edge="1">
          <mxGeometry relative="1" as="geometry" />
        </mxCell>
        <mxCell id="dmJfg_LldCalJw2ZhZcC-85" style="edgeStyle=orthogonalEdgeStyle;rounded=0;orthogonalLoop=1;jettySize=auto;html=1;exitX=0;exitY=0.5;exitDx=0;exitDy=0;entryX=0;entryY=0.5;entryDx=0;entryDy=0;" parent="dmJfg_LldCalJw2ZhZcC-1" source="dmJfg_LldCalJw2ZhZcC-12" target="dmJfg_LldCalJw2ZhZcC-59" edge="1">
          <mxGeometry relative="1" as="geometry">
            <Array as="points">
              <mxPoint x="20" y="540" />
              <mxPoint x="20" y="1020" />
            </Array>
          </mxGeometry>
        </mxCell>
        <mxCell id="dmJfg_LldCalJw2ZhZcC-88" style="edgeStyle=orthogonalEdgeStyle;rounded=0;orthogonalLoop=1;jettySize=auto;html=1;exitX=0.5;exitY=1;exitDx=0;exitDy=0;entryX=0;entryY=0.5;entryDx=0;entryDy=0;" parent="dmJfg_LldCalJw2ZhZcC-1" source="dmJfg_LldCalJw2ZhZcC-77" target="dmJfg_LldCalJw2ZhZcC-87" edge="1">
          <mxGeometry relative="1" as="geometry" />
        </mxCell>
        <mxCell id="dmJfg_LldCalJw2ZhZcC-23" style="edgeStyle=orthogonalEdgeStyle;rounded=0;orthogonalLoop=1;jettySize=auto;html=1;exitX=0.5;exitY=1;exitDx=0;exitDy=0;entryX=0;entryY=0.5;entryDx=0;entryDy=0;" parent="dmJfg_LldCalJw2ZhZcC-1" source="dmJfg_LldCalJw2ZhZcC-10" target="dmJfg_LldCalJw2ZhZcC-22" edge="1">
          <mxGeometry relative="1" as="geometry">
            <Array as="points">
              <mxPoint x="300" y="180" />
              <mxPoint x="20" y="180" />
              <mxPoint x="20" y="310" />
            </Array>
          </mxGeometry>
        </mxCell>
        <mxCell id="nOpQTuYZqoU_LGnzcLyJ-1" style="edgeStyle=orthogonalEdgeStyle;rounded=0;orthogonalLoop=1;jettySize=auto;html=1;entryX=0;entryY=0.5;entryDx=0;entryDy=0;exitX=1;exitY=0.5;exitDx=0;exitDy=0;" edge="1" parent="dmJfg_LldCalJw2ZhZcC-1" source="dmJfg_LldCalJw2ZhZcC-22" target="dmJfg_LldCalJw2ZhZcC-36">
          <mxGeometry relative="1" as="geometry">
            <mxPoint x="180" y="290" as="sourcePoint" />
            <mxPoint x="175" y="320" as="targetPoint" />
          </mxGeometry>
        </mxCell>
        <mxCell id="nOpQTuYZqoU_LGnzcLyJ-3" style="edgeStyle=orthogonalEdgeStyle;rounded=0;orthogonalLoop=1;jettySize=auto;html=1;entryX=0.5;entryY=0;entryDx=0;entryDy=0;exitX=0.5;exitY=1;exitDx=0;exitDy=0;" edge="1" parent="dmJfg_LldCalJw2ZhZcC-1" source="dmJfg_LldCalJw2ZhZcC-36" target="nOpQTuYZqoU_LGnzcLyJ-2">
          <mxGeometry relative="1" as="geometry">
            <mxPoint x="175" y="410" as="sourcePoint" />
            <mxPoint x="445" y="410" as="targetPoint" />
          </mxGeometry>
        </mxCell>
        <mxCell id="nOpQTuYZqoU_LGnzcLyJ-5" style="edgeStyle=orthogonalEdgeStyle;rounded=0;orthogonalLoop=1;jettySize=auto;html=1;exitX=0.5;exitY=1;exitDx=0;exitDy=0;entryX=0;entryY=0.5;entryDx=0;entryDy=0;" edge="1" parent="dmJfg_LldCalJw2ZhZcC-1" source="dmJfg_LldCalJw2ZhZcC-60" target="nOpQTuYZqoU_LGnzcLyJ-4">
          <mxGeometry relative="1" as="geometry">
            <mxPoint x="312" y="1050" as="sourcePoint" />
            <mxPoint x="112" y="1090" as="targetPoint" />
            <Array as="points">
              <mxPoint x="302" y="1060" />
              <mxPoint x="10" y="1060" />
              <mxPoint x="10" y="1170" />
            </Array>
          </mxGeometry>
        </mxCell>
        <mxCell id="nOpQTuYZqoU_LGnzcLyJ-7" style="edgeStyle=orthogonalEdgeStyle;rounded=0;orthogonalLoop=1;jettySize=auto;html=1;exitX=1;exitY=0.5;exitDx=0;exitDy=0;entryX=0;entryY=0.5;entryDx=0;entryDy=0;" edge="1" parent="dmJfg_LldCalJw2ZhZcC-1" source="nOpQTuYZqoU_LGnzcLyJ-4" target="dmJfg_LldCalJw2ZhZcC-62">
          <mxGeometry relative="1" as="geometry">
            <mxPoint x="184" y="1110" as="sourcePoint" />
            <mxPoint x="239" y="1150" as="targetPoint" />
            <Array as="points">
              <mxPoint x="210" y="1170" />
              <mxPoint x="210" y="1140" />
            </Array>
          </mxGeometry>
        </mxCell>
        <mxCell id="dmJfg_LldCalJw2ZhZcC-67" style="edgeStyle=orthogonalEdgeStyle;rounded=0;orthogonalLoop=1;jettySize=auto;html=1;exitX=0.5;exitY=1;exitDx=0;exitDy=0;entryX=0.5;entryY=0;entryDx=0;entryDy=0;" parent="dmJfg_LldCalJw2ZhZcC-1" source="dmJfg_LldCalJw2ZhZcC-62" target="nOpQTuYZqoU_LGnzcLyJ-9" edge="1">
          <mxGeometry relative="1" as="geometry">
            <Array as="points">
              <mxPoint x="302" y="1200" />
              <mxPoint x="102" y="1200" />
            </Array>
          </mxGeometry>
        </mxCell>
        <mxCell id="nOpQTuYZqoU_LGnzcLyJ-10" style="edgeStyle=orthogonalEdgeStyle;rounded=0;orthogonalLoop=1;jettySize=auto;html=1;exitX=1;exitY=0.5;exitDx=0;exitDy=0;entryX=0;entryY=0.5;entryDx=0;entryDy=0;" edge="1" parent="dmJfg_LldCalJw2ZhZcC-1" source="nOpQTuYZqoU_LGnzcLyJ-9" target="dmJfg_LldCalJw2ZhZcC-66">
          <mxGeometry relative="1" as="geometry" />
        </mxCell>
      </root>
    </mxGraphModel>
  </diagram>
</mxfile>
